<svg width="25" height="25" viewBox="0 0 25 25" fill="none" xmlns="http://www.w3.org/2000/svg">
<path d="M10.6509 0.65288C11.4442 -0.217671 12.8137 -0.217582 13.607 0.65288L13.9781 1.05913C14.5043 1.63655 15.3186 1.85476 16.063 1.61772L16.5865 1.45073C17.7087 1.09338 18.8952 1.77871 19.147 2.92925L19.2652 3.46636C19.4322 4.22959 20.0283 4.82581 20.7915 4.99272L21.3286 5.10991C22.4791 5.36172 23.1635 6.54824 22.8062 7.67046L22.6402 8.1939C22.403 8.93848 22.6211 9.75357 23.1988 10.2798L23.605 10.649C24.4757 11.4422 24.4755 12.8127 23.605 13.606L23.1988 13.9761C22.6211 14.5024 22.403 15.3175 22.6402 16.0621L22.8062 16.5845C23.1636 17.7068 22.4792 18.8942 21.3286 19.146L20.7915 19.2632C20.0282 19.4302 19.4321 20.0263 19.2652 20.7896L19.147 21.3267C18.8951 22.4771 17.7087 23.1616 16.5865 22.8042L16.063 22.6382C15.3185 22.4012 14.5043 22.6193 13.9781 23.1968L13.607 23.6031C12.8137 24.4734 11.4441 24.4735 10.6509 23.6031L10.2808 23.1968C9.75455 22.6193 8.93938 22.4012 8.19486 22.6382L7.67142 22.8042C6.54919 23.1616 5.36272 22.4772 5.11087 21.3267L4.99369 20.7896C4.82673 20.0263 4.22969 19.4302 3.46634 19.2632L2.93021 19.146C1.77947 18.8944 1.09426 17.7069 1.45169 16.5845L1.61771 16.0621C1.85483 15.3175 1.63677 14.5024 1.05912 13.9761L0.652867 13.606C-0.217496 12.8126 -0.217749 11.4422 0.652867 10.649L1.05912 10.2798C1.63677 9.75357 1.85483 8.93848 1.61771 8.1939L1.45169 7.67046C1.09444 6.54814 1.77956 5.36154 2.93021 5.10991L3.46634 4.99272C4.22966 4.8258 4.8267 4.22966 4.99369 3.46636L5.11087 2.92925C5.36263 1.77869 6.54914 1.09341 7.67142 1.45073L8.19486 1.61772C8.93938 1.85479 9.75455 1.63668 10.2808 1.05913L10.6509 0.65288ZM11.1509 14.0503L7.82572 10.7242L6.76517 11.7847L10.0904 15.1109L10.0796 15.1226L11.1411 16.1841L17.5044 9.81987L16.4439 8.75933L11.1509 14.0503Z" fill="#FCDA6E"/>
</svg>
