<svg width="70" height="70" viewBox="0 0 70 70" fill="none" xmlns="http://www.w3.org/2000/svg">
<mask id="mask0_2899_6112" style="mask-type:alpha" maskUnits="userSpaceOnUse" x="0" y="0" width="70" height="70">
<circle cx="35" cy="35" r="35" fill="#D9D9D9"/>
</mask>
<g mask="url(#mask0_2899_6112)">
<rect x="10.9023" y="43.2943" width="50" height="1.5" fill="#12437A"/>
<path d="M22.9029 26.6848L35.9302 13.6906L49.0045 26.6976H53.9381L46.9068 19.5883V13.3383H43.7896V16.2797L35.9693 8.65857L18.1367 26.6848H22.9029Z" fill="black" stroke="black" stroke-width="0.2"/>
<path d="M11.834 26.7055H16.2539L26.9023 16.0063L27.7422 16.8071L30.0115 14.5397L26.9065 11.4784L11.834 26.7055Z" fill="#12437A" stroke="#12437A" stroke-width="0.2"/>
<path d="M33.7676 23.7025H35.5176V25.4525H33.7676V23.7025ZM38.2676 25.4525H36.5176V23.7025H38.2676V25.4525ZM35.5176 20.9525V22.7025H33.7676V20.9525H35.5176ZM38.2676 22.7025H36.5176V20.9525H38.2676V22.7025Z" fill="#12437A"/>
<path d="M12.0952 46.844C12.6814 46.844 13.1304 46.9492 13.4423 47.1597C13.7542 47.3663 13.9102 47.6895 13.9102 48.1292C13.9102 48.4035 13.8463 48.6271 13.7185 48.7999C13.5945 48.969 13.4141 49.1024 13.1774 49.2001C13.2563 49.2978 13.339 49.4106 13.4254 49.5383C13.5118 49.6623 13.5964 49.7938 13.6791 49.9329C13.7655 50.0682 13.8482 50.211 13.9271 50.3613C14.006 50.5078 14.0793 50.6525 14.1469 50.7953H13.1605C13.0891 50.6675 13.0158 50.5379 12.9407 50.4064C12.8693 50.2748 12.7941 50.1471 12.7152 50.0231C12.64 49.8991 12.5649 49.7826 12.4897 49.6736C12.4146 49.5609 12.3394 49.4594 12.2643 49.3692H11.8302V50.7953H10.9509V46.9455C11.1426 46.9079 11.3399 46.8816 11.5428 46.8666C11.7495 46.8515 11.9336 46.844 12.0952 46.844ZM12.1459 47.5937C12.082 47.5937 12.0238 47.5956 11.9712 47.5993C11.9223 47.6031 11.8753 47.6068 11.8302 47.6106V48.6703H12.0783C12.4089 48.6703 12.6457 48.6289 12.7885 48.5463C12.9313 48.4636 13.0027 48.3227 13.0027 48.1235C13.0027 47.9319 12.9294 47.7966 12.7828 47.7177C12.64 47.635 12.4277 47.5937 12.1459 47.5937ZM14.7669 50.7953V46.8891H17.4048V47.6275H15.6462V48.3941H17.2075V49.1156H15.6462V50.0569H17.5345V50.7953H14.7669ZM20.8626 50.7953C20.6108 50.3481 20.3384 49.9066 20.0453 49.4707C19.7522 49.0348 19.4403 48.6233 19.1096 48.2363V50.7953H18.2416V46.8891H18.9574C19.0814 47.0131 19.2186 47.1653 19.3689 47.3457C19.5192 47.526 19.6714 47.7196 19.8254 47.9262C19.9833 48.1292 20.1392 48.3415 20.2933 48.5632C20.4474 48.7811 20.592 48.9916 20.7273 49.1945V46.8891H21.601V50.7953H20.8626ZM23.2968 48.8394C23.2968 49.031 23.3194 49.2039 23.3645 49.3579C23.4133 49.512 23.4809 49.6454 23.5674 49.7581C23.6576 49.8671 23.7665 49.9517 23.8943 50.0118C24.0221 50.0719 24.1686 50.102 24.334 50.102C24.4955 50.102 24.6402 50.0719 24.768 50.0118C24.8995 49.9517 25.0085 49.8671 25.0949 49.7581C25.1851 49.6454 25.2527 49.512 25.2978 49.3579C25.3467 49.2039 25.3711 49.031 25.3711 48.8394C25.3711 48.6477 25.3467 48.4749 25.2978 48.3208C25.2527 48.163 25.1851 48.0296 25.0949 47.9206C25.0085 47.8079 24.8995 47.7214 24.768 47.6613C24.6402 47.6012 24.4955 47.5711 24.334 47.5711C24.1686 47.5711 24.0221 47.6031 23.8943 47.667C23.7665 47.7271 23.6576 47.8135 23.5674 47.9262C23.4809 48.0352 23.4133 48.1686 23.3645 48.3264C23.3194 48.4805 23.2968 48.6515 23.2968 48.8394ZM26.2786 48.8394C26.2786 49.1738 26.2279 49.4688 26.1264 49.7243C26.0287 49.9761 25.8934 50.1884 25.7206 50.3613C25.5477 50.5304 25.341 50.6581 25.1005 50.7446C24.8638 50.831 24.6083 50.8742 24.334 50.8742C24.0672 50.8742 23.8154 50.831 23.5786 50.7446C23.3419 50.6581 23.1352 50.5304 22.9586 50.3613C22.782 50.1884 22.643 49.9761 22.5415 49.7243C22.44 49.4688 22.3893 49.1738 22.3893 48.8394C22.3893 48.5049 22.4419 48.2118 22.5471 47.9601C22.6524 47.7045 22.7933 47.4903 22.9699 47.3175C23.1503 47.1446 23.3569 47.015 23.5899 46.9286C23.8267 46.8421 24.0747 46.7989 24.334 46.7989C24.6008 46.7989 24.8525 46.8421 25.0893 46.9286C25.326 47.015 25.5327 47.1446 25.7093 47.3175C25.8859 47.4903 26.0249 47.7045 26.1264 47.9601C26.2279 48.2118 26.2786 48.5049 26.2786 48.8394ZM28.086 50.7953C27.9319 50.4684 27.7797 50.1283 27.6294 49.7751C27.4791 49.4218 27.3363 49.0724 27.201 48.7266C27.0657 48.3809 26.9399 48.0503 26.8234 47.7346C26.7106 47.4189 26.6129 47.1371 26.5303 46.8891H27.4998C27.5749 47.1146 27.6557 47.3588 27.7421 47.6219C27.8323 47.8812 27.9225 48.1404 28.0127 48.3997C28.1066 48.659 28.1968 48.907 28.2833 49.1438C28.3697 49.3805 28.4505 49.5853 28.5256 49.7581C28.597 49.5853 28.6759 49.3805 28.7624 49.1438C28.8525 48.907 28.9427 48.659 29.0329 48.3997C29.1269 48.1404 29.2171 47.8812 29.3035 47.6219C29.3937 47.3588 29.4763 47.1146 29.5515 46.8891H30.4872C30.4007 47.1371 30.3012 47.4189 30.1884 47.7346C30.0757 48.0503 29.9517 48.3809 29.8164 48.7266C29.6811 49.0724 29.5383 49.4218 29.388 49.7751C29.2377 50.1283 29.0855 50.4684 28.9315 50.7953H28.086ZM33.2956 50.7953C33.2543 50.66 33.2073 50.521 33.1547 50.3782C33.1059 50.2354 33.057 50.0926 33.0082 49.9498H31.4863C31.4374 50.0926 31.3867 50.2354 31.3341 50.3782C31.2852 50.521 31.2401 50.66 31.1988 50.7953H30.2857C30.4322 50.3744 30.5713 49.9855 30.7028 49.6285C30.8343 49.2715 30.9621 48.9352 31.0861 48.6195C31.2138 48.3039 31.3378 48.0052 31.4581 47.7233C31.5821 47.4377 31.7098 47.1597 31.8414 46.8891H32.6812C32.809 47.1597 32.9349 47.4377 33.0589 47.7233C33.1829 48.0052 33.3069 48.3039 33.4309 48.6195C33.5587 48.9352 33.6883 49.2715 33.8198 49.6285C33.9513 49.9855 34.0904 50.3744 34.2369 50.7953H33.2956ZM32.2416 47.7741C32.2228 47.8304 32.1946 47.9075 32.157 48.0052C32.1194 48.1029 32.0762 48.2156 32.0274 48.3434C31.9785 48.4711 31.924 48.612 31.8639 48.7661C31.8076 48.9202 31.7493 49.0818 31.6892 49.2509H32.7996C32.7395 49.0818 32.6812 48.9202 32.6249 48.7661C32.5685 48.612 32.514 48.4711 32.4614 48.3434C32.4125 48.2156 32.3693 48.1029 32.3318 48.0052C32.2942 47.9075 32.2641 47.8304 32.2416 47.7741ZM37.2338 46.8891V47.6388H36.0557V50.7953H35.1764V47.6388H33.9984V46.8891H37.2338ZM37.8553 46.8891H38.7346V50.7953H37.8553V46.8891ZM40.4335 48.8394C40.4335 49.031 40.456 49.2039 40.5011 49.3579C40.55 49.512 40.6176 49.6454 40.704 49.7581C40.7942 49.8671 40.9032 49.9517 41.031 50.0118C41.1587 50.0719 41.3053 50.102 41.4706 50.102C41.6322 50.102 41.7769 50.0719 41.9046 50.0118C42.0362 49.9517 42.1451 49.8671 42.2316 49.7581C42.3218 49.6454 42.3894 49.512 42.4345 49.3579C42.4833 49.2039 42.5078 49.031 42.5078 48.8394C42.5078 48.6477 42.4833 48.4749 42.4345 48.3208C42.3894 48.163 42.3218 48.0296 42.2316 47.9206C42.1451 47.8079 42.0362 47.7214 41.9046 47.6613C41.7769 47.6012 41.6322 47.5711 41.4706 47.5711C41.3053 47.5711 41.1587 47.6031 41.031 47.667C40.9032 47.7271 40.7942 47.8135 40.704 47.9262C40.6176 48.0352 40.55 48.1686 40.5011 48.3264C40.456 48.4805 40.4335 48.6515 40.4335 48.8394ZM43.4153 48.8394C43.4153 49.1738 43.3645 49.4688 43.2631 49.7243C43.1654 49.9761 43.0301 50.1884 42.8572 50.3613C42.6844 50.5304 42.4777 50.6581 42.2372 50.7446C42.0005 50.831 41.7449 50.8742 41.4706 50.8742C41.2038 50.8742 40.9521 50.831 40.7153 50.7446C40.4786 50.6581 40.2719 50.5304 40.0953 50.3613C39.9187 50.1884 39.7796 49.9761 39.6782 49.7243C39.5767 49.4688 39.526 49.1738 39.526 48.8394C39.526 48.5049 39.5786 48.2118 39.6838 47.9601C39.789 47.7045 39.9299 47.4903 40.1066 47.3175C40.2869 47.1446 40.4936 47.015 40.7266 46.9286C40.9633 46.8421 41.2113 46.7989 41.4706 46.7989C41.7374 46.7989 41.9892 46.8421 42.2259 46.9286C42.4627 47.015 42.6693 47.1446 42.846 47.3175C43.0226 47.4903 43.1616 47.7045 43.2631 47.9601C43.3645 48.2118 43.4153 48.5049 43.4153 48.8394ZM46.8256 50.7953C46.5739 50.3481 46.3014 49.9066 46.0083 49.4707C45.7152 49.0348 45.4033 48.6233 45.0726 48.2363V50.7953H44.2046V46.8891H44.9205C45.0445 47.0131 45.1816 47.1653 45.3319 47.3457C45.4822 47.526 45.6344 47.7196 45.7885 47.9262C45.9463 48.1292 46.1023 48.3415 46.2563 48.5632C46.4104 48.7811 46.5551 48.9916 46.6904 49.1945V46.8891H47.564V50.7953H46.8256ZM52.5417 50.04V50.7953H49.932V46.8891H50.8113V50.04H52.5417ZM55.7742 50.04V50.7953H53.1644V46.8891H54.0437V50.04H55.7742ZM58.068 50.8742C57.4329 50.8742 56.9482 50.6976 56.6137 50.3444C56.283 49.9911 56.1177 49.4895 56.1177 48.8394C56.1177 48.5162 56.1684 48.2287 56.2699 47.977C56.3714 47.7214 56.5104 47.5073 56.687 47.3344C56.8636 47.1578 57.0741 47.0244 57.3183 46.9342C57.5626 46.844 57.8275 46.7989 58.1131 46.7989C58.2784 46.7989 58.4287 46.8121 58.564 46.8384C58.6993 46.8609 58.8177 46.8891 58.9191 46.9229C59.0206 46.953 59.1051 46.9849 59.1728 47.0187C59.2404 47.0526 59.2893 47.0789 59.3193 47.0977L59.0657 47.8079C58.9454 47.744 58.8045 47.6895 58.6429 47.6444C58.4851 47.5993 58.3047 47.5768 58.1018 47.5768C57.9665 47.5768 57.8331 47.5993 57.7016 47.6444C57.5738 47.6895 57.4592 47.7628 57.3578 47.8642C57.2601 47.9619 57.1812 48.0897 57.121 48.2475C57.0609 48.4054 57.0308 48.597 57.0308 48.8225C57.0308 49.0028 57.0496 49.1719 57.0872 49.3298C57.1285 49.4838 57.1924 49.6172 57.2789 49.73C57.369 49.8427 57.4855 49.9329 57.6283 50.0005C57.7711 50.0644 57.944 50.0963 58.1469 50.0963C58.2747 50.0963 58.3893 50.0888 58.4907 50.0738C58.5922 50.0588 58.6824 50.0419 58.7613 50.0231C58.8402 50.0005 58.9097 49.9761 58.9698 49.9498C59.03 49.9235 59.0845 49.8991 59.1333 49.8765L59.3757 50.5811C59.2517 50.6563 59.0769 50.7239 58.8515 50.784C58.626 50.8441 58.3648 50.8742 58.068 50.8742Z" fill="black"/>
<path d="M11.3203 41.0542C11.2203 41.0542 11.1303 41.0138 11.0503 40.9331C10.9803 40.8524 10.9453 40.7486 10.9453 40.6217V29.3781C10.9453 29.2513 10.9803 29.1475 11.0503 29.0668C11.1303 28.986 11.2203 28.9457 11.3203 28.9457H12.9403C13.1003 28.9457 13.2203 28.9976 13.3003 29.1014C13.3903 29.1936 13.4453 29.2686 13.4653 29.3262L16.1053 34.7924L18.7453 29.3262C18.7753 29.2686 18.8253 29.1936 18.8953 29.1014C18.9753 28.9976 19.1003 28.9457 19.2703 28.9457H20.8753C20.9853 28.9457 21.0753 28.986 21.1453 29.0668C21.2253 29.1475 21.2653 29.2513 21.2653 29.3781V40.6217C21.2653 40.7486 21.2253 40.8524 21.1453 40.9331C21.0753 41.0138 20.9853 41.0542 20.8753 41.0542H19.0903C18.9803 41.0542 18.8853 41.0138 18.8053 40.9331C18.7353 40.8524 18.7003 40.7486 18.7003 40.6217V34.135L17.0053 37.7503C16.9653 37.8541 16.9053 37.9463 16.8253 38.0271C16.7453 38.1078 16.6353 38.1481 16.4953 38.1481H15.7153C15.5753 38.1481 15.4653 38.1078 15.3853 38.0271C15.3053 37.9463 15.2403 37.8541 15.1903 37.7503L13.4953 34.135V40.6217C13.4953 40.7486 13.4603 40.8524 13.3903 40.9331C13.3203 41.0138 13.2303 41.0542 13.1203 41.0542H11.3203Z" fill="#12437A"/>
<path d="M25.7375 41.0542C25.6275 41.0542 25.5375 41.0138 25.4675 40.9331C25.3975 40.8524 25.3625 40.7486 25.3625 40.6217V31.6614H22.6925C22.5825 31.6614 22.4925 31.6211 22.4225 31.5404C22.3525 31.4481 22.3175 31.3443 22.3175 31.229V29.3781C22.3175 29.2513 22.3525 29.1475 22.4225 29.0668C22.4925 28.986 22.5825 28.9457 22.6925 28.9457H30.7625C30.8725 28.9457 30.9625 28.986 31.0325 29.0668C31.1025 29.1475 31.1375 29.2513 31.1375 29.3781V31.229C31.1375 31.3443 31.1025 31.4481 31.0325 31.5404C30.9625 31.6211 30.8725 31.6614 30.7625 31.6614H28.0925V40.6217C28.0925 40.7486 28.0575 40.8524 27.9875 40.9331C27.9175 41.0138 27.8275 41.0542 27.7175 41.0542H25.7375Z" fill="#12437A"/>
<path d="M35.3871 41.2272C34.6071 41.2272 33.9271 41.0888 33.3471 40.812C32.7771 40.5237 32.3321 40.1143 32.0121 39.5839C31.7021 39.0534 31.5471 38.4191 31.5471 37.6811C31.5471 37.1852 31.6321 36.7412 31.8021 36.3492C31.9721 35.9571 32.2071 35.5996 32.5071 35.2767C32.8171 34.9538 33.1721 34.6597 33.5721 34.3945C33.1921 33.9102 32.9171 33.4662 32.7471 33.0626C32.5871 32.6474 32.5071 32.2323 32.5071 31.8171C32.5071 31.2751 32.6271 30.7793 32.8671 30.3295C33.1071 29.8682 33.4671 29.4934 33.9471 29.2052C34.4371 28.9169 35.0421 28.7727 35.7621 28.7727C36.4321 28.7727 36.9971 28.9111 37.4571 29.1879C37.9171 29.4646 38.2671 29.8336 38.5071 30.2949C38.7571 30.7447 38.8821 31.2348 38.8821 31.7652C38.8821 32.2265 38.7921 32.6417 38.6121 33.0107C38.4421 33.3797 38.1971 33.7199 37.8771 34.0313C37.5671 34.3311 37.2071 34.6194 36.7971 34.8961L38.5821 36.9546C38.6521 36.8047 38.7621 36.5683 38.9121 36.2454C39.0621 35.9225 39.2071 35.5016 39.3471 34.9826C39.3771 34.8097 39.4821 34.7232 39.6621 34.7232H41.1771C41.2671 34.7232 41.3371 34.7578 41.3871 34.827C41.4471 34.8846 41.4771 34.9653 41.4771 35.0691C41.4671 35.2767 41.4171 35.5304 41.3271 35.8302C41.2371 36.1185 41.1171 36.4299 40.9671 36.7643C40.8171 37.0872 40.6521 37.4043 40.4721 37.7157C40.2921 38.0155 40.1171 38.2865 39.9471 38.5287L41.6121 40.4833C41.6921 40.5756 41.7321 40.6621 41.7321 40.7428C41.7321 40.8351 41.7071 40.91 41.6571 40.9677C41.6071 41.0253 41.5371 41.0542 41.4471 41.0542H39.4071C39.3071 41.0542 39.2271 41.0369 39.1671 41.0023C39.1071 40.9562 39.0571 40.9158 39.0171 40.8812L38.3421 40.1374C37.9321 40.5179 37.4821 40.7947 36.9921 40.9677C36.5121 41.1407 35.9771 41.2272 35.3871 41.2272ZM35.3871 39.0303C35.6771 39.0303 35.9521 38.9784 36.2121 38.8746C36.4821 38.7709 36.7221 38.6094 36.9321 38.3903L34.9221 36.0897C34.6621 36.2511 34.4321 36.4587 34.2321 36.7124C34.0421 36.9546 33.9471 37.2429 33.9471 37.5773C33.9471 37.8771 34.0171 38.1366 34.1571 38.3557C34.2971 38.5748 34.4771 38.742 34.6971 38.8574C34.9171 38.9727 35.1471 39.0303 35.3871 39.0303ZM35.5221 33.3047C35.7521 33.1779 35.9571 33.0453 36.1371 32.9069C36.3171 32.757 36.4621 32.5955 36.5721 32.4226C36.6821 32.2496 36.7371 32.0593 36.7371 31.8517C36.7371 31.5404 36.6421 31.2924 36.4521 31.1079C36.2721 30.9119 36.0421 30.8139 35.7621 30.8139C35.5021 30.8139 35.2721 30.9061 35.0721 31.0906C34.8821 31.2751 34.7871 31.5346 34.7871 31.869C34.7871 32.0074 34.8071 32.1458 34.8471 32.2842C34.8971 32.4226 34.9771 32.5782 35.0871 32.7512C35.1971 32.9127 35.3421 33.0972 35.5221 33.3047Z" fill="#12437A"/>
<path d="M43.1449 41.0542C43.0349 41.0542 42.9449 41.0138 42.8749 40.9331C42.8049 40.8524 42.7699 40.7486 42.7699 40.6217V29.3781C42.7699 29.2513 42.8049 29.1475 42.8749 29.0668C42.9449 28.986 43.0349 28.9457 43.1449 28.9457H47.0449C48.0249 28.9457 48.8599 29.1302 49.5499 29.4992C50.2399 29.8567 50.7699 30.3872 51.1399 31.0906C51.5099 31.7825 51.7099 32.6417 51.7399 33.668C51.7499 34.1754 51.7549 34.6194 51.7549 34.9999C51.7549 35.3805 51.7499 35.8187 51.7399 36.3146C51.6999 37.387 51.4999 38.275 51.1399 38.9784C50.7899 39.6819 50.2749 40.2066 49.5949 40.5525C48.9249 40.887 48.0999 41.0542 47.1199 41.0542H43.1449ZM45.4549 38.5633H47.0449C47.4749 38.5633 47.8299 38.4883 48.1099 38.3384C48.3999 38.177 48.6149 37.929 48.7549 37.5946C48.9049 37.2602 48.9849 36.822 48.9949 36.28C49.0149 35.9455 49.0249 35.6457 49.0249 35.3805C49.0349 35.1152 49.0349 34.85 49.0249 34.5848C49.0249 34.3195 49.0149 34.0255 48.9949 33.7026C48.9749 32.9184 48.7949 32.3476 48.4549 31.9901C48.1249 31.6211 47.6299 31.4366 46.9699 31.4366H45.4549V38.5633Z" fill="black"/>
<path d="M55.7311 41.0542C55.6211 41.0542 55.5311 41.0138 55.4611 40.9331C55.3911 40.8524 55.3561 40.7486 55.3561 40.6217V31.6614H52.6861C52.5761 31.6614 52.4861 31.6211 52.4161 31.5404C52.3461 31.4481 52.3111 31.3443 52.3111 31.229V29.3781C52.3111 29.2513 52.3461 29.1475 52.4161 29.0668C52.4861 28.986 52.5761 28.9457 52.6861 28.9457H60.7561C60.8661 28.9457 60.9561 28.986 61.0261 29.0668C61.0961 29.1475 61.1311 29.2513 61.1311 29.3781V31.229C61.1311 31.3443 61.0961 31.4481 61.0261 31.5404C60.9561 31.6211 60.8661 31.6614 60.7561 31.6614H58.0861V40.6217C58.0861 40.7486 58.0511 40.8524 57.9811 40.9331C57.9111 41.0138 57.8211 41.0542 57.7111 41.0542H55.7311Z" fill="black"/>
</g>
</svg>
