<svg width="25" height="25" viewBox="0 0 25 25" fill="none" xmlns="http://www.w3.org/2000/svg">
<path d="M11.576 3.98961C11.6585 3.82214 11.7863 3.68113 11.9448 3.58251C12.1033 3.4839 12.2863 3.43164 12.473 3.43164C12.6597 3.43164 12.8427 3.4839 13.0012 3.58251C13.1597 3.68113 13.2875 3.82214 13.37 3.98961L15.33 7.96161C15.4018 8.107 15.5078 8.23276 15.639 8.32805C15.7702 8.42334 15.9225 8.48531 16.083 8.50861L20.469 9.14961C20.6536 9.17659 20.827 9.25467 20.9696 9.37504C21.1121 9.49541 21.2182 9.65326 21.2757 9.83075C21.3332 10.0082 21.34 10.1983 21.2951 10.3794C21.2503 10.5605 21.1557 10.7255 21.022 10.8556L17.85 13.9456C17.7339 14.0587 17.6469 14.1984 17.5968 14.3526C17.5466 14.5067 17.5347 14.6708 17.562 14.8306L18.31 19.1956C18.3414 19.3794 18.3208 19.5683 18.2505 19.7409C18.1802 19.9136 18.063 20.0632 17.9122 20.1728C17.7614 20.2824 17.583 20.3477 17.3971 20.3613C17.2111 20.3748 17.0251 20.3362 16.86 20.2496L12.939 18.1876C12.7955 18.1121 12.6357 18.0727 12.4735 18.0727C12.3113 18.0727 12.1516 18.1121 12.008 18.1876L8.087 20.2496C7.92185 20.3364 7.73571 20.3753 7.54961 20.3619C7.36352 20.3485 7.18489 20.2832 7.03393 20.1736C6.88297 20.0639 6.7657 19.9142 6.69538 19.7414C6.62506 19.5686 6.60449 19.3795 6.636 19.1956L7.384 14.8306C7.41134 14.6708 7.3994 14.5067 7.34923 14.3526C7.29906 14.1984 7.21215 14.0587 7.096 13.9456L3.924 10.8556C3.79032 10.7255 3.69571 10.5605 3.65088 10.3794C3.60605 10.1983 3.61278 10.0082 3.67031 9.83075C3.72784 9.65326 3.83388 9.49541 3.97644 9.37504C4.119 9.25467 4.29238 9.17659 4.477 9.14961L8.863 8.50861C9.02328 8.48516 9.17546 8.42312 9.30645 8.32784C9.43744 8.23255 9.54333 8.10687 9.615 7.96161L11.576 3.98961Z" fill="#FABB05"/>
</svg>
