<svg width="16" height="17" viewBox="0 0 16 17" fill="none" xmlns="http://www.w3.org/2000/svg">
<g clip-path="url(#clip0_25_26121)">
<g clip-path="url(#clip1_25_26121)">
<path d="M3.54594 9.76609L2.989 11.8452L0.953406 11.8883C0.345063 10.7599 0 9.46897 0 8.09709C0 6.7705 0.322625 5.5195 0.8945 4.41797L2.70719 4.75022L3.50106 6.55159C3.33491 7.036 3.24434 7.556 3.24434 8.09709C3.24441 8.68434 3.35078 9.247 3.54594 9.76609Z" fill="#F0B501"/>
<path d="M15.8601 6.60156C15.952 7.0855 15.9999 7.58528 15.9999 8.09606C15.9999 8.66881 15.9397 9.2275 15.825 9.7664C15.4356 11.6003 14.418 13.2016 13.0083 14.3348L10.7252 14.2179L10.4022 12.2012C11.3376 11.6526 12.0686 10.7941 12.4536 9.7664H8.17578V6.60156H12.516H15.8601Z" fill="#3B7DED"/>
<path d="M13.0077 14.3349C11.6367 15.4369 9.89553 16.0966 7.99972 16.0966C4.95313 16.0966 2.30435 14.3938 0.953125 11.8878L3.54566 9.76562C4.22125 11.5687 5.9606 12.8522 7.99972 12.8522C8.87619 12.8522 9.69732 12.6153 10.402 12.2017L13.0077 14.3349Z" fill="#2BA24C"/>
<path d="M13.1064 1.93941L10.5147 4.06116C9.78553 3.60535 8.92353 3.34203 8.00003 3.34203C5.91475 3.34203 4.14287 4.68444 3.50112 6.55216L0.894969 4.41853C2.22641 1.8515 4.90815 0.0976562 8.00003 0.0976562C9.94112 0.0976562 11.7209 0.789093 13.1064 1.93941Z" fill="#E43E2B"/>
</g>
</g>
<defs>
<clipPath id="clip0_25_26121">
<rect width="16" height="16" fill="white" transform="translate(0 0.0976562)"/>
</clipPath>
<clipPath id="clip1_25_26121">
<rect width="16" height="16" fill="white" transform="translate(0 0.0976562)"/>
</clipPath>
</defs>
</svg>
