<svg width="39" height="39" viewBox="0 0 39 39" fill="none" xmlns="http://www.w3.org/2000/svg">
<path d="M15.4375 6.33852C16.4689 6.33836 17.4618 6.73052 18.2147 7.43546C18.9676 8.1404 19.4242 9.10532 19.4919 10.1345L19.5 10.401V17.8841L28.3432 18.8673C29.8764 19.0377 31.2991 19.7478 32.3568 20.8707C33.4145 21.9936 34.0384 23.4561 34.1169 24.9968L34.125 25.3266V25.8385C34.125 29.216 32.8105 32.4608 30.4599 34.886C28.1092 37.3113 24.907 38.7265 21.5312 38.832L21.125 38.8385H20.0298C17.6938 38.8385 15.401 38.209 13.3924 37.0163C11.3839 35.8236 9.73381 34.1117 8.61575 32.0606L8.40287 31.6528L3.78462 22.4163C3.19962 21.2463 3.6335 19.6814 4.9985 19.1208C6.69337 18.4269 8.30375 18.2969 9.96287 19.1403C10.3236 19.3244 10.6779 19.5487 11.0256 19.813L11.375 20.0893V10.401C11.375 9.32358 11.803 8.29027 12.5649 7.5284C13.3267 6.76653 14.3601 6.33852 15.4375 6.33852ZM15.4375 9.58852C15.2473 9.58846 15.0632 9.6551 14.9171 9.77684C14.771 9.89858 14.6722 10.0677 14.638 10.2548L14.625 10.401V24.2135C14.6247 24.5499 14.5201 24.878 14.3254 25.1524C14.1308 25.4268 13.8558 25.634 13.5384 25.7455C13.2209 25.8569 12.8767 25.8671 12.5533 25.7746C12.2298 25.6822 11.943 25.4916 11.7325 25.2291L11.193 24.5678L10.7006 23.9925C9.75813 22.9249 9.074 22.335 8.49062 22.0376C8.14562 21.8518 7.75262 21.7742 7.36287 21.815L7.13375 21.8475L11.31 30.2C12.0899 31.7592 13.2735 33.0808 14.7377 34.027C16.2019 34.9733 17.893 35.5097 19.6349 35.5804L20.0298 35.5885H21.125C23.6476 35.5886 26.0721 34.611 27.889 32.861C29.7059 31.1111 30.7739 28.725 30.8685 26.2041L30.875 25.8385V25.3266C30.8751 24.5715 30.6122 23.8399 30.1315 23.2575C29.6508 22.6751 28.9823 22.2782 28.2409 22.1351L27.9841 22.0961L19.1409 21.1146C18.3901 21.0313 17.6917 20.689 17.1659 20.1466C16.6402 19.6042 16.3197 18.8956 16.2597 18.1425L16.25 17.8841V10.401C16.25 10.1855 16.1644 9.97887 16.012 9.8265C15.8597 9.67412 15.653 9.58852 15.4375 9.58852ZM6.5 12.8385C6.93098 12.8385 7.3443 13.0097 7.64905 13.3145C7.95379 13.6192 8.125 14.0325 8.125 14.4635C8.125 14.8945 7.95379 15.3078 7.64905 15.6126C7.3443 15.9173 6.93098 16.0885 6.5 16.0885H4.875C4.44402 16.0885 4.0307 15.9173 3.72595 15.6126C3.4212 15.3078 3.25 14.8945 3.25 14.4635C3.25 14.0325 3.4212 13.6192 3.72595 13.3145C4.0307 13.0097 4.44402 12.8385 4.875 12.8385H6.5ZM26 11.2135C26.4142 11.214 26.8126 11.3726 27.1137 11.6569C27.4149 11.9412 27.5961 12.3298 27.6204 12.7433C27.6447 13.1568 27.5102 13.5639 27.2443 13.8815C26.9785 14.1991 26.6014 14.4032 26.1901 14.4521L26 14.4635H24.375C23.9608 14.4631 23.5624 14.3045 23.2613 14.0201C22.9601 13.7358 22.7789 13.3472 22.7546 12.9338C22.7303 12.5203 22.8648 12.1132 23.1307 11.7955C23.3965 11.4779 23.7736 11.2738 24.1849 11.2249L24.375 11.2135H26ZM7.64887 5.18965L9.27387 6.81465C9.56988 7.12112 9.73367 7.5316 9.72997 7.95767C9.72627 8.38374 9.55537 8.79131 9.25408 9.0926C8.95279 9.39389 8.54522 9.56479 8.11915 9.56849C7.69308 9.57219 7.2826 9.4084 6.97613 9.1124L5.35113 7.4874C5.05512 7.18092 4.89133 6.77044 4.89503 6.34437C4.89873 5.9183 5.06963 5.51073 5.37092 5.20944C5.67221 4.90815 6.07978 4.73725 6.50585 4.73355C6.93192 4.72985 7.3424 4.89364 7.64887 5.18965ZM25.5239 5.18965C25.8285 5.49438 25.9997 5.90763 25.9997 6.33852C25.9997 6.76941 25.8285 7.18266 25.5239 7.4874L23.8989 9.1124C23.749 9.2676 23.5697 9.3914 23.3714 9.47656C23.1732 9.56172 22.9599 9.60655 22.7442 9.60843C22.5284 9.6103 22.3144 9.56919 22.1147 9.48748C21.915 9.40577 21.7336 9.28511 21.581 9.13254C21.4284 8.97996 21.3077 8.79853 21.226 8.59882C21.1443 8.39911 21.1032 8.18513 21.1051 7.96937C21.107 7.7536 21.1518 7.54037 21.237 7.34211C21.3221 7.14386 21.4459 6.96455 21.6011 6.81465L23.2261 5.18965C23.5309 4.885 23.9441 4.71387 24.375 4.71387C24.8059 4.71387 25.2191 4.885 25.5239 5.18965Z" fill="white"/>
</svg>
